<svg xmlns="http://www.w3.org/2000/svg" width="242.358" height="524.787" viewBox="0 0 242.358 524.787">
  <path id="Image_Place_here" data-name="Image Place here" d="M217.8,524.787H24.559A24.587,24.587,0,0,1,0,500.228V24.559A24.587,24.587,0,0,1,24.559,0H50.581a4.4,4.4,0,0,1,3.38,3.342c.106.468.217,1.08.346,1.788.248,1.363.555,3.054,1.012,4.762.591,2.21,3.2,9.428,11.975,9.518,3.309.034,23.941.041,40.666.041,30.767,0,66.071-.024,67.722-.041,8.773-.09,11.384-7.308,11.975-9.518.458-1.712.766-3.4,1.013-4.765.129-.712.24-1.319.345-1.784A4.261,4.261,0,0,1,192.366,0H217.8a24.587,24.587,0,0,1,24.559,24.559V500.228A24.587,24.587,0,0,1,217.8,524.787Z" fill="#e3e3e3"/>
</svg>
