<svg xmlns="http://www.w3.org/2000/svg" width="217.48" height="470.916" viewBox="0 0 217.48 470.916">
  <path id="Image_Place_here" data-name="Image Place here" d="M195.442,470.916H22.038A22.063,22.063,0,0,1,0,448.878V22.038A22.063,22.063,0,0,1,22.038,0H45.388a3.95,3.95,0,0,1,3.033,3c.1.42.2.969.31,1.6.222,1.223.5,2.74.908,4.273.531,1.983,2.874,8.46,10.746,8.541,2.97.031,21.483.037,36.492.037,27.609,0,59.288-.022,60.77-.037,7.872-.081,10.215-6.558,10.746-8.541.411-1.536.687-3.055.909-4.276.116-.639.215-1.184.31-1.6a3.823,3.823,0,0,1,3.006-3h22.822A22.063,22.063,0,0,1,217.48,22.038v426.84A22.063,22.063,0,0,1,195.442,470.916Z" transform="translate(0 0)" fill="#e3e3e3"/>
</svg>
